<mxfile host="app.diagrams.net" agent="Mozilla/5.0 (Windows NT 10.0; Win64; x64) AppleWebKit/537.36 (KHTML, like Gecko) Chrome/131.0.0.0 Safari/537.36 Edg/131.0.0.0" version="25.0.3">
  <diagram name="Page-1" id="b7a7eaba-c6c5-6fbe-34ae-1d3a4219ac39">
    <mxGraphModel dx="1134" dy="1189" grid="1" gridSize="10" guides="1" tooltips="1" connect="1" arrows="1" fold="1" page="1" pageScale="1.5" pageWidth="1169" pageHeight="826" background="none" math="0" shadow="0">
      <root>
        <mxCell id="0" style=";html=1;" />
        <mxCell id="1" style=";html=1;" parent="0" />
        <mxCell id="279d4c6e8b4f5ae2-3" value="" style="html=1;shadow=0;dashed=0;align=center;verticalAlign=middle;shape=mxgraph.arrows2.arrow;dy=0.5;dx=15;direction=north;notch=0;rounded=0;strokeWidth=1;fontSize=20;rotation=35;" parent="1" vertex="1">
          <mxGeometry x="799" y="604" width="20" height="240" as="geometry" />
        </mxCell>
        <mxCell id="279d4c6e8b4f5ae2-4" value="" style="html=1;shadow=0;dashed=0;align=center;verticalAlign=middle;shape=mxgraph.arrows2.arrow;dy=0.5;dx=15;direction=north;notch=0;rounded=0;strokeWidth=1;fontSize=20;rotation=35;" parent="1" vertex="1">
          <mxGeometry x="1029" y="604" width="20" height="240" as="geometry" />
        </mxCell>
        <mxCell id="279d4c6e8b4f5ae2-5" value="" style="html=1;shadow=0;dashed=0;align=center;verticalAlign=middle;shape=mxgraph.arrows2.arrow;dy=0.5;dx=15;direction=north;notch=0;rounded=0;strokeWidth=1;fontSize=20;rotation=90;" parent="1" vertex="1">
          <mxGeometry x="819" y="279" width="20" height="681" as="geometry" />
        </mxCell>
        <mxCell id="279d4c6e8b4f5ae2-6" value="" style="html=1;shadow=0;dashed=0;align=center;verticalAlign=middle;shape=mxgraph.arrows2.arrow;dy=0.5;dx=15;direction=north;notch=0;rounded=0;strokeWidth=1;fontSize=20;rotation=155;" parent="1" vertex="1">
          <mxGeometry x="613" y="384" width="20" height="240" as="geometry" />
        </mxCell>
        <mxCell id="279d4c6e8b4f5ae2-7" value="" style="html=1;shadow=0;dashed=0;align=center;verticalAlign=middle;shape=mxgraph.arrows2.arrow;dy=0.5;dx=15;direction=north;notch=0;rounded=0;strokeWidth=1;fontSize=20;rotation=155;" parent="1" vertex="1">
          <mxGeometry x="818" y="385" width="20" height="240" as="geometry" />
        </mxCell>
        <mxCell id="279d4c6e8b4f5ae2-8" value="" style="html=1;shadow=0;dashed=0;align=center;verticalAlign=middle;shape=mxgraph.arrows2.arrow;dy=0.5;dx=15;direction=north;notch=0;rounded=0;strokeWidth=1;fontSize=20;rotation=155;" parent="1" vertex="1">
          <mxGeometry x="1048" y="384" width="20" height="240" as="geometry" />
        </mxCell>
        <mxCell id="279d4c6e8b4f5ae2-9" value="Producto" style="rounded=1;whiteSpace=wrap;html=1;shadow=1;strokeWidth=2;fontSize=20;" parent="1" vertex="1">
          <mxGeometry x="499" y="364" width="150" height="40" as="geometry" />
        </mxCell>
        <mxCell id="279d4c6e8b4f5ae2-10" value="Promoción" style="rounded=1;whiteSpace=wrap;html=1;shadow=1;strokeWidth=2;fontSize=20;" parent="1" vertex="1">
          <mxGeometry x="709" y="364" width="150" height="40" as="geometry" />
        </mxCell>
        <mxCell id="279d4c6e8b4f5ae2-11" value="Proceso" style="rounded=1;whiteSpace=wrap;html=1;shadow=1;strokeWidth=2;fontSize=20;" parent="1" vertex="1">
          <mxGeometry x="939" y="364" width="150" height="40" as="geometry" />
        </mxCell>
        <mxCell id="279d4c6e8b4f5ae2-13" value="Precio" style="rounded=1;whiteSpace=wrap;html=1;shadow=1;strokeWidth=2;fontSize=20;" parent="1" vertex="1">
          <mxGeometry x="672" y="816.0000000000001" width="150" height="40" as="geometry" />
        </mxCell>
        <mxCell id="279d4c6e8b4f5ae2-14" value="Plaza" style="rounded=1;whiteSpace=wrap;html=1;shadow=1;strokeWidth=2;fontSize=20;" parent="1" vertex="1">
          <mxGeometry x="902" y="816" width="150" height="40" as="geometry" />
        </mxCell>
        <mxCell id="279d4c6e8b4f5ae2-15" value="Problema: Disminución de ventas de motos" style="ellipse;whiteSpace=wrap;html=1;rounded=1;shadow=1;strokeWidth=2;fontSize=20;" parent="1" vertex="1">
          <mxGeometry x="1171" y="560" width="120" height="120" as="geometry" />
        </mxCell>
        <mxCell id="279d4c6e8b4f5ae2-16" value="Calidad de las motos" style="html=1;shadow=0;dashed=0;align=center;verticalAlign=middle;shape=mxgraph.arrows2.arrow;dy=0.5;dx=15;direction=north;notch=0;rounded=0;strokeWidth=1;fontSize=20;rotation=90;horizontal=0;labelPosition=left;verticalLabelPosition=middle;" parent="1" vertex="1">
          <mxGeometry x="470" y="401" width="20" height="110" as="geometry" />
        </mxCell>
        <mxCell id="279d4c6e8b4f5ae2-17" value="Estrategias de marketing" style="html=1;shadow=0;dashed=0;align=center;verticalAlign=middle;shape=mxgraph.arrows2.arrow;dy=0.5;dx=15;direction=north;notch=0;rounded=0;strokeWidth=1;fontSize=20;rotation=90;horizontal=0;labelPosition=left;verticalLabelPosition=middle;" parent="1" vertex="1">
          <mxGeometry x="709" y="385" width="20" height="110" as="geometry" />
        </mxCell>
        <mxCell id="279d4c6e8b4f5ae2-18" value="Atención al cliente" style="html=1;shadow=0;dashed=0;align=center;verticalAlign=middle;shape=mxgraph.arrows2.arrow;dy=0.5;dx=15;direction=north;notch=0;rounded=0;strokeWidth=1;fontSize=20;rotation=90;horizontal=0;labelPosition=left;verticalLabelPosition=middle;" parent="1" vertex="1">
          <mxGeometry x="964" y="401" width="20" height="110" as="geometry" />
        </mxCell>
        <mxCell id="279d4c6e8b4f5ae2-20" value="Percepción de valor&amp;nbsp;&lt;div&gt;por parte del cliente&lt;/div&gt;" style="html=1;shadow=0;dashed=0;align=center;verticalAlign=middle;shape=mxgraph.arrows2.arrow;dy=0.5;dx=15;direction=north;notch=0;rounded=0;strokeWidth=1;fontSize=20;rotation=90;horizontal=0;labelPosition=left;verticalLabelPosition=middle;" parent="1" vertex="1">
          <mxGeometry x="640" y="745" width="20" height="110" as="geometry" />
        </mxCell>
        <mxCell id="279d4c6e8b4f5ae2-21" value="Eficiencia en la distribución" style="html=1;shadow=0;dashed=0;align=center;verticalAlign=middle;shape=mxgraph.arrows2.arrow;dy=0.5;dx=15;direction=north;notch=0;rounded=0;strokeWidth=1;fontSize=20;rotation=90;horizontal=0;labelPosition=left;verticalLabelPosition=middle;" parent="1" vertex="1">
          <mxGeometry x="916" y="734" width="20" height="110" as="geometry" />
        </mxCell>
        <mxCell id="279d4c6e8b4f5ae2-22" value="Variedad de modelos" style="html=1;shadow=0;dashed=0;align=center;verticalAlign=middle;shape=mxgraph.arrows2.arrow;dy=0.5;dx=15;direction=north;notch=0;rounded=0;strokeWidth=1;fontSize=20;rotation=90;horizontal=0;labelPosition=left;verticalLabelPosition=middle;" parent="1" vertex="1">
          <mxGeometry x="520" y="460" width="20" height="110" as="geometry" />
        </mxCell>
        <mxCell id="279d4c6e8b4f5ae2-23" value="Publicidad en medios&lt;div&gt;tradicionales y digitales&lt;/div&gt;" style="html=1;shadow=0;dashed=0;align=center;verticalAlign=middle;shape=mxgraph.arrows2.arrow;dy=0.5;dx=15;direction=north;notch=0;rounded=0;strokeWidth=1;fontSize=20;rotation=90;horizontal=0;labelPosition=left;verticalLabelPosition=middle;" parent="1" vertex="1">
          <mxGeometry x="740" y="449" width="20" height="110" as="geometry" />
        </mxCell>
        <mxCell id="279d4c6e8b4f5ae2-24" value="Tiempos de entrega" style="html=1;shadow=0;dashed=0;align=center;verticalAlign=middle;shape=mxgraph.arrows2.arrow;dy=0.5;dx=15;direction=north;notch=0;rounded=0;strokeWidth=1;fontSize=20;rotation=90;horizontal=0;labelPosition=left;verticalLabelPosition=middle;" parent="1" vertex="1">
          <mxGeometry x="986" y="458" width="20" height="110" as="geometry" />
        </mxCell>
        <mxCell id="279d4c6e8b4f5ae2-26" value="Competitividad de precios" style="html=1;shadow=0;dashed=0;align=center;verticalAlign=middle;shape=mxgraph.arrows2.arrow;dy=0.5;dx=15;direction=north;notch=0;rounded=0;strokeWidth=1;fontSize=20;rotation=90;horizontal=0;labelPosition=left;verticalLabelPosition=middle;" parent="1" vertex="1">
          <mxGeometry x="760" y="635" width="20" height="110" as="geometry" />
        </mxCell>
        <mxCell id="279d4c6e8b4f5ae2-27" value="Ubicación de las tiendas" style="html=1;shadow=0;dashed=0;align=center;verticalAlign=middle;shape=mxgraph.arrows2.arrow;dy=0.5;dx=15;direction=north;notch=0;rounded=0;strokeWidth=1;fontSize=20;rotation=90;horizontal=0;labelPosition=left;verticalLabelPosition=middle;" parent="1" vertex="1">
          <mxGeometry x="996" y="613" width="20" height="110" as="geometry" />
        </mxCell>
        <mxCell id="bXBlYchQ4LKptyNpZXcA-1" value="Innovación y características&lt;div&gt;tecnologicas&lt;/div&gt;" style="html=1;shadow=0;dashed=0;align=center;verticalAlign=middle;shape=mxgraph.arrows2.arrow;dy=0.5;dx=15;direction=north;notch=0;rounded=0;strokeWidth=1;fontSize=20;rotation=90;horizontal=0;labelPosition=left;verticalLabelPosition=middle;" vertex="1" parent="1">
          <mxGeometry x="550" y="540" width="20" height="110" as="geometry" />
        </mxCell>
        <mxCell id="bXBlYchQ4LKptyNpZXcA-2" value="Promociones y descuentos" style="html=1;shadow=0;dashed=0;align=center;verticalAlign=middle;shape=mxgraph.arrows2.arrow;dy=0.5;dx=15;direction=north;notch=0;rounded=0;strokeWidth=1;fontSize=20;rotation=90;horizontal=0;labelPosition=left;verticalLabelPosition=middle;" vertex="1" parent="1">
          <mxGeometry x="730" y="680" width="20" height="110" as="geometry" />
        </mxCell>
        <mxCell id="bXBlYchQ4LKptyNpZXcA-9" value="Presencia en&amp;nbsp;&lt;div&gt;redes sociales&lt;/div&gt;" style="html=1;shadow=0;dashed=0;align=center;verticalAlign=middle;shape=mxgraph.arrows2.arrow;dy=0.5;dx=15;direction=north;notch=0;rounded=0;strokeWidth=1;fontSize=20;rotation=90;horizontal=0;labelPosition=left;verticalLabelPosition=middle;" vertex="1" parent="1">
          <mxGeometry x="775" y="527" width="20" height="110" as="geometry" />
        </mxCell>
        <mxCell id="bXBlYchQ4LKptyNpZXcA-12" value="Disponibilidad de stock" style="html=1;shadow=0;dashed=0;align=center;verticalAlign=middle;shape=mxgraph.arrows2.arrow;dy=0.5;dx=15;direction=north;notch=0;rounded=0;strokeWidth=1;fontSize=20;rotation=90;horizontal=0;labelPosition=left;verticalLabelPosition=middle;" vertex="1" parent="1">
          <mxGeometry x="959" y="667" width="20" height="110" as="geometry" />
        </mxCell>
        <mxCell id="bXBlYchQ4LKptyNpZXcA-15" value="Servicio postventa" style="html=1;shadow=0;dashed=0;align=center;verticalAlign=middle;shape=mxgraph.arrows2.arrow;dy=0.5;dx=15;direction=north;notch=0;rounded=0;strokeWidth=1;fontSize=20;rotation=90;horizontal=0;labelPosition=left;verticalLabelPosition=middle;" vertex="1" parent="1">
          <mxGeometry x="1015" y="518" width="20" height="110" as="geometry" />
        </mxCell>
      </root>
    </mxGraphModel>
  </diagram>
</mxfile>
